// Pitches and Anthem from: https://github.com/Aorda/USSR-Anthem-with-Arduino-Piezo-Buzzer/blob/master/sovietanthem.ino 
// Modified to be interruptable, so it can be used as an alarm

#include "pitches.h"

int melody[] = {
  NOTE_G4, NOTE_C5, NOTE_G4, NOTE_A4, NOTE_B4, NOTE_E4, NOTE_E4, 
  NOTE_A4, NOTE_G4, NOTE_F4, NOTE_G4, NOTE_C4, NOTE_C4, 
  NOTE_D4, NOTE_D4, NOTE_E4, NOTE_F4, NOTE_F4, NOTE_G4, NOTE_A4, NOTE_B4, NOTE_C5, NOTE_D5, 
  NOTE_E5, NOTE_D5, NOTE_C5, NOTE_D5, NOTE_B4, NOTE_G4, 
  NOTE_C5, NOTE_B4, NOTE_A4, NOTE_B4, NOTE_E4, NOTE_E4, 
  NOTE_A4, NOTE_G4, NOTE_F4, NOTE_G4, NOTE_C4, NOTE_C4, 
  NOTE_C5, NOTE_B4, NOTE_A4, NOTE_G4, NOTE_B4, NOTE_C5, NOTE_D5, 
  NOTE_E5, NOTE_D5, NOTE_C5, NOTE_B4, NOTE_C5, NOTE_D5, NOTE_G4, NOTE_G4, NOTE_B4, NOTE_C5, NOTE_D5,
  NOTE_C5, NOTE_B4, NOTE_A4, NOTE_G4, NOTE_A4, NOTE_B4, NOTE_E4, NOTE_E4, NOTE_G4, NOTE_A4, NOTE_B4,
  NOTE_C5, NOTE_A4, NOTE_B4, NOTE_C5, NOTE_A4, NOTE_B4, NOTE_C5, NOTE_A4, NOTE_C5, NOTE_F5,
  NOTE_F5, NOTE_E5, NOTE_D5, NOTE_C5, NOTE_D5, NOTE_E5, NOTE_C5, NOTE_C5,
  NOTE_D5, NOTE_C5, NOTE_B4, NOTE_A4, NOTE_B4, NOTE_C5, NOTE_A4, NOTE_A4,
  NOTE_C5, NOTE_B4, NOTE_A4, NOTE_G4, NOTE_C4, NOTE_G4, NOTE_A4, NOTE_B4, NOTE_C5
};

int noteDurations[] = {
  8, 4, 6, 16, 4, 8, 8, 
  4, 6, 16, 4, 8, 8, 
  4, 8, 8, 4, 8, 8, 4, 8, 8, 2,
  4, 6, 16, 4, 8, 8, 
  4, 6, 16, 4, 8, 8, 
  4, 6, 16, 4, 6, 16, 
  4, 6, 16, 8, 8, 8, 8, 
  2, 8, 8, 8, 8, 3, 8, 8, 8, 8, 8,
  2, 8, 8, 8, 8, 3, 8, 8, 8, 8, 8,
  4, 6, 16, 4, 6, 16, 4, 8, 8, 2,
  2, 8, 8, 8, 8, 3, 8, 2,
  2, 8, 8, 8, 8, 3, 8, 2,
  4, 6, 16, 4, 4, 2, 4, 4, 1
};

const int BUZZER_PIN = 8;

int progress = 0;

void resetSong() {
  progress = 0;
}

void playSong() {
  int thisNote = progress % (sizeof(melody) / 2);
  
  int noteDuration = 2000 / noteDurations[thisNote];
  tone(BUZZER_PIN, melody[thisNote], noteDuration);
  int pauseBetweenNotes = noteDuration * 1.30;
  delay(pauseBetweenNotes);
  noTone(BUZZER_PIN);
  
  progress++;
}